#!OML:ASF H:\LiuWeirdWalks\Patient Classification 1\Patient 1\Session 1\male.ASF
:FULLY-SPECIFIED
:DEGREES
1270
root 2.06909 18.0916 24.489 5.17662 4.58655 -5.74949
lowerback 0.894679 2.17265 4.39831
upperback -0.125938 2.94576 0.0855045
thorax -0.413733 1.4617 -2.40437
lowerneck -23.0332 0.289596 4.94055
upperneck 23.825 -0.273744 -3.88666
head 11.5848 -0.178198 -2.31465
rclavicle -9.79014e-015 -2.34566e-014
rhumerus -34.6609 -6.49206 -84.3434
rradius 31.9892
rwrist -7.15802
rhand -18.6291 -3.43174
rfingers 7.12502
rthumb 7.6632 -33.2729
lclavicle -9.79014e-015 -2.34566e-014
lhumerus -38.4363 -0.851485 81.3357
lradius 34.2249
lwrist 15.0471
lhand -14.7034 -2.81774
lfingers 7.12502
lthumb 11.4508 26.8495
rfemur 13.9399 -3.75848 22.7215
rtibia 21.0256
rfoot 4.43315 -4.46158
rtoes -22.3309
lfemur -22.0108 -2.74003 -16.73
ltibia 30.7767
lfoot -8.82869 6.78607
ltoes -6.56214
1271
root 2.08842 18.0934 24.5529 5.21387 4.48028 -5.75264
lowerback 0.866297 2.29911 4.5626
upperback -0.100124 3.11341 -0.00273665
thorax -0.345327 1.54703 -2.58493
lowerneck -23.2638 0.141733 4.78231
upperneck 23.9314 -0.473672 -3.75086
head 11.6599 -0.264665 -2.27459
rclavicle -3.55328e-014 -1.82882e-014
rhumerus -34.6494 -6.8568 -84.2842
rradius 32.1608
rwrist -7.20595
rhand -18.5905 -3.46018
rfingers 7.12502
rthumb 7.70042 -33.3
lclavicle -3.55328e-014 -1.82882e-014
lhumerus -38.0583 -1.25576 81.398
lradius 34.1908
lwrist 15.0321
lhand -14.7029 -2.78517
lfingers 7.12502
lthumb 11.4512 26.8821
rfemur 13.7022 -3.5287 22.6021
rtibia 21.6552
rfoot 4.80365 -4.13129
rtoes -22.0474
lfemur -21.7829 -2.66102 -16.788
ltibia 30.7505
lfoot -9.00478 6.86678
ltoes -6.58459
1272
root 2.10845 18.0948 24.6147 5.24767 4.37866 -5.75001
lowerback 0.863342 2.33023 4.59368
upperback -0.166936 3.15677 -0.0231832
thorax -0.406151 1.56612 -2.62506
lowerneck -23.1393 0.105074 4.78098
upperneck 23.9491 -0.515836 -3.7596
head 11.6405 -0.283992 -2.28355
rclavicle 1.35174e-014 -6.36111e-015
rhumerus -34.7966 -6.89549 -84.2805
rradius 32.3321
rwrist -7.25946
rhand -18.5606 -3.4568
rfingers 7.12502
rthumb 7.72931 -33.2955
lclavicle 1.35174e-014 -6.36111e-015
lhumerus -37.9626 -1.37149 81.3862
lradius 34.2205
lwrist 15.0115
lhand -14.7014 -2.76025
lfingers 7.12502
lthumb 11.4527 26.9069
rfemur 13.4215 -3.33093 22.462
rtibia 22.3739
rfoot 5.10762 -3.78042
rtoes -21.6915
lfemur -21.5535 -2.59071 -16.8562
ltibia 30.719
lfoot -9.17161 6.94246
ltoes -6.61209
1273
root 2.13006 18.0957 24.6747 5.28215 4.29084 -5.70773
lowerback 0.874457 2.25854 4.46505
upperback -0.304677 3.06434 0.0149273
thorax -0.570037 1.51438 -2.51835
lowerneck -22.7369 0.177879 4.90765
upperneck 23.9217 -0.403166 -3.8843
head 11.5578 -0.236223 -2.32821
rclavicle 2.33075e-014 -1.51076e-014
rhumerus -35.0537 -6.60617 -84.3424
rradius 32.4959
rwrist -7.33136
rhand -18.5323 -3.4654
rfingers 7.12502
rthumb 7.75661 -33.3031
lclavicle 2.33075e-014 -1.51076e-014
lhumerus -38.1062 -1.19807 81.3047
lradius 34.3072
lwrist 14.9824
lhand -14.7225 -2.74943
lfingers 7.12502
lthumb 11.4324 26.9189
rfemur 13.0973 -3.19754 22.2511
rtibia 23.1843
rfoot 5.34958 -3.385
rtoes -21.296
lfemur -21.3192 -2.53748 -16.9766
ltibia 30.6747
lfoot -9.32812 7.01229
ltoes -6.65257
1274
root 2.15189 18.0968 24.7315 5.32088 4.21062 -5.6235
lowerback 0.902797 2.21424 4.35567
upperback -0.448282 3.00926 0.0153645
thorax -0.743289 1.48122 -2.46184
lowerneck -22.3254 0.20542 4.96888
upperneck 23.9078 -0.345884 -3.95091
head 11.476 -0.211218 -2.34947
rclavicle 5.75482e-014 5.96354e-015
rhumerus -35.3298 -6.39988 -84.3833
rradius 32.6559
rwrist -7.40099
rhand -18.5185 -3.46003
rfingers 7.12502
rthumb 7.76994 -33.2973
lclavicle 5.75482e-014 5.96354e-015
lhumerus -38.2368 -1.1255 81.2511
lradius 34.4096
lwrist 14.986
lhand -14.7585 -2.7469
lfingers 7.12502
lthumb 11.3977 26.9233
rfemur 12.7177 -3.10049 21.9844
rtibia 24.0827
rfoot 5.55038 -2.9789
rtoes -20.8676
lfemur -21.0884 -2.49324 -17.1456
ltibia 30.6135
lfoot -9.46896 7.07256
ltoes -6.70573
1275
root 2.17347 18.0981 24.7867 5.35664 4.1334 -5.50733
lowerback 0.934744 1.92137 3.81561
upperback -0.632067 2.61976 0.218924
thorax -1.01205 1.28237 -1.9545
lowerneck -21.7025 0.52459 5.33245
upperneck 23.8517 0.115172 -4.3254
head 11.3598 -0.0152404 -2.46942
rclavicle 2.23633e-014 3.97569e-015
rhumerus -35.5691 -5.37246 -84.5919
rradius 32.7485
rwrist -7.51933
rhand -18.5251 -3.4187
rfingers 7.12502
rthumb 7.76356 -33.2562
lclavicle 2.23633e-014 3.97569e-015
lhumerus -38.6653 -0.247018 81.0311
lradius 34.5891
lwrist 14.968
lhand -14.8068 -2.74504
lfingers 7.12502
lthumb 11.3511 26.9278
rfemur 12.2918 -3.03003 21.6751
rtibia 25.0682
rfoot 5.72196 -2.57772
rtoes -20.4473
lfemur -20.8484 -2.45748 -17.3511
ltibia 30.5346
lfoot -9.5973 7.1333
ltoes -6.77443
1276
root 2.1929 18.0995 24.8413 5.3748 4.03509 -5.43171
lowerback 0.967232 1.91573 3.7529
upperback -0.6471 2.61294 0.196888
thorax -1.04783 1.27847 -1.94362
lowerneck -21.741 0.51948 5.29632
upperneck 23.9368 0.113299 -4.30142
head 11.3993 -0.0157385 -2.45697
rclavicle -5.36222e-014 -1.55052e-014
rhumerus -35.5773 -5.31119 -84.6263
rradius 32.8458
rwrist -7.56795
rhand -18.5374 -3.37964
rfingers 7.12502
rthumb 7.75171 -33.2175
lclavicle -5.36222e-014 -1.55052e-014
lhumerus -38.5041 -0.236204 81.0064
lradius 34.6739
lwrist 15.0119
lhand -14.851 -2.68532
lfingers 7.12502
lthumb 11.3085 26.9898
rfemur 11.8285 -2.91605 21.4339
rtibia 26.135
rfoot 5.89265 -2.24611
rtoes -19.9924
lfemur -20.5896 -2.40853 -17.5027
ltibia 30.4432
lfoot -9.71933 7.20344
ltoes -6.84263
1277
root 2.21121 18.1011 24.8936 5.38709 3.93228 -5.37485
lowerback 1.01507 1.9006 3.68347
upperback -0.658372 2.59407 0.192269
thorax -1.09016 1.26862 -1.91149
lowerneck -21.7601 0.525305 5.27316
upperneck 23.976 0.126883 -4.29313
head 11.4187 -0.0104891 -2.4489
rclavicle -2.80286e-014 1.19271e-015
rhumerus -35.5597 -5.21225 -84.664
rradius 32.9176
rwrist -7.61957
rhand -18.5458 -3.33776
rfingers 7.12502
rthumb 7.74355 -33.176
lclavicle -2.80286e-014 1.19271e-015
lhumerus -38.3428 -0.196792 80.9837
lradius 34.7673
lwrist 15.0551
lhand -14.9004 -2.6306
lfingers 7.12502
lthumb 11.2608 27.0471
rfemur 11.3208 -2.80686 21.2211
rtibia 27.2689
rfoot 6.09746 -1.95813
rtoes -19.4325
lfemur -20.3328 -2.36328 -17.629
ltibia 30.3467
lfoot -9.83153 7.28584
ltoes -6.91092
1278
root 2.22807 18.1029 24.9447 5.39452 3.82288 -5.33218
lowerback 1.00933 1.84028 3.53214
upperback -0.626121 2.51086 0.241653
thorax -1.06731 1.22919 -1.77442
lowerneck -21.7669 0.589645 5.31065
upperneck 23.9402 0.22104 -4.35585
head 11.4119 0.0266643 -2.46298
rclavicle 1.49585e-014 3.18055e-015
rhumerus -35.4407 -4.96353 -84.7277
rradius 32.9549
rwrist -7.68567
rhand -18.5675 -3.31427
rfingers 7.12502
rthumb 7.72263 -33.1533
lclavicle 1.49585e-014 3.18055e-015
lhumerus -38.1548 0.0191386 80.9423
lradius 34.8591
lwrist 15.0924
lhand -14.9508 -2.59382
lfingers 7.12502
lthumb 11.2122 27.0866
rfemur 10.7724 -2.69802 21.0349
rtibia 28.4641
rfoot 6.34292 -1.73319
rtoes -18.7295
lfemur -20.0759 -2.32179 -17.7347
ltibia 30.2475
lfoot -9.93814 7.38421
ltoes -6.96334
1279
root 2.24394 18.1045 24.9955 5.3815 3.71181 -5.31614
lowerback 1.02204 1.77819 3.3993
upperback -0.594664 2.4265 0.300119
thorax -1.05477 1.18883 -1.63905
lowerneck -21.7326 0.650596 5.34524
upperneck 23.871 0.31136 -4.41309
head 11.3845 0.0625408 -2.47404
rclavicle 7.90169e-015 2.62396e-014
rhumerus -35.3286 -4.72149 -84.789
rradius 32.9816
rwrist -7.76469
rhand -18.5859 -3.32646
rfingers 7.12502
rthumb 7.70483 -33.1661
lclavicle 7.90169e-015 2.62396e-014
lhumerus -37.9874 0.198217 80.9137
lradius 34.9581
lwrist 15.1361
lhand -15.0025 -2.57239
lfingers 7.12502
lthumb 11.1623 27.1107
rfemur 10.203 -2.60145 20.8845
rtibia 29.7211
rfoot 6.63568 -1.56354
rtoes -17.8599
lfemur -19.7941 -2.28835 -17.8083
ltibia 30.1364
lfoot -10.042 7.49948
ltoes -6.99582
